ub 0) OBJ File: 'IverModel.blend'
# www.blender.org
mtllib Iver_rudder.mtl
o Plane
v -0.287569 0.995708 6.162231
v -0.287569 -1.004292 6.162231
v -0.287569 0.995708 4.162231
v -0.287569 -1.004292 4.162231
v -0.287569 0.995708 4.447946
v -0.287569 0.995708 4.733660
v -0.287569 0.995708 5.019374
v -0.287569 0.995708 5.305089
v -0.287569 0.995708 5.590803
v -0.287569 0.995708 5.876517
v -0.287569 0.709994 6.162231
v -0.287569 0.424280 6.162231
v -0.287569 0.138566 6.162231
v -0.287569 -0.147149 6.162231
v -0.287569 -0.432863 6.162231
v -0.287569 -0.718577 6.162231
v -0.287569 -1.004292 5.876517
v -0.287569 -1.004292 5.590803
v -0.287569 -1.004292 5.305089
v -0.287569 -1.004292 5.019374
v -0.287569 -1.004292 4.733660
v -0.287569 -1.004292 4.447946
v -0.287569 -0.718577 4.162231
v -0.287569 -0.432863 4.162231
v -0.133803 -1.004292 4.162231
v -0.133803 0.995708 4.162231
v -0.287569 0.424280 4.162231
v -0.287569 0.709994 4.162231
v -0.287569 0.709994 5.876517
v -0.287569 0.709994 5.590803
v -0.287569 0.709994 5.305089
v -0.287569 0.709994 5.019374
v -0.287569 0.709994 4.733660
v -0.287569 0.709994 4.447946
v -0.287569 0.424280 5.876517
v -0.287569 0.424280 5.590803
v -0.133803 -0.718577 6.162231
v -0.133803 -0.432863 6.162231
v -0.133803 -0.147149 6.162231
v -0.287569 0.424280 4.447946
v -0.287569 0.138566 5.876517
v -0.287569 0.138566 5.590803
v -0.133803 0.138566 6.162231
v -0.133803 0.424280 6.162231
v -0.133803 0.709994 6.162231
v -0.133803 -1.004292 6.162231
v -0.287569 -0.147149 5.876517
v -0.287569 -0.147149 5.590803
v -0.133803 0.995708 5.876517
v -0.133803 0.995708 5.590803
v -0.133803 0.995708 5.305089
v -0.133803 0.995708 6.162231
v -0.287569 -0.432863 5.876517
v -0.287569 -0.432863 5.590803
v -0.133803 0.995708 5.019374
v -0.133803 0.995708 4.733660
v -0.133803 0.995708 4.447946
v -0.287569 -0.432863 4.447946
v -0.287569 -0.718577 5.876517
v -0.287569 -0.718577 5.590803
v -0.287569 -0.718577 5.305089
v -0.287569 -0.718577 5.019374
v -0.287569 -0.718577 4.733660
v -0.287569 -0.718577 4.447946
v -0.133803 -1.004292 5.876517
v -0.133803 -1.004292 5.590803
v -0.133803 -1.004292 5.305089
v -0.133803 -1.004292 5.019374
v -0.133803 -1.004292 4.733660
v -0.133803 -1.004292 4.447946
v -0.133803 -0.718577 4.162231
v -0.133803 -0.432863 4.162231
v -0.133803 0.424280 4.162231
v -0.133803 0.709994 4.162231
v -0.133803 0.709994 5.876517
v -0.133803 0.709994 5.590803
v -0.133803 0.709994 5.305089
v -0.133803 0.709994 5.019374
v -0.133803 0.709994 4.733660
v -0.133803 0.709994 4.447946
v -0.133803 0.424280 5.876517
v -0.133803 0.424280 5.590803
v -0.133803 0.424280 4.447946
v -0.133803 0.138566 5.876517
v -0.133803 0.138566 5.590803
v -0.133803 -0.147149 5.876517
v -0.133803 -0.147149 5.590803
v -0.133803 -0.432863 5.876517
v -0.133803 -0.432863 5.590803
v -0.133803 -0.432863 4.447946
v -0.133803 -0.718577 5.876517
v -0.133803 -0.718577 5.590803
v -0.133803 -0.718577 5.305089
v -0.133803 -0.718577 5.019374
v -0.133803 -0.718577 4.733660
v -0.133803 -0.718577 4.447946
vn -1.000000 0.000000 0.000000
vn 1.000000 0.000000 0.000000
vn 0.000000 -1.000000 0.000000
vn 0.000000 1.000000 0.000000
vn 0.000000 0.000000 -1.000000
vn 0.000000 0.000000 1.000000
usemtl Rudder
s off
f 64//1 23//1 4//1 22//1
f 5//1 3//1 28//1 34//1
f 34//1 28//1 27//1 40//1
f 96//2 70//2 25//2 71//2
f 57//2 80//2 74//2 26//2
f 80//2 83//2 73//2 74//2
f 58//1 24//1 23//1 64//1
f 1//1 10//1 29//1 11//1
f 10//1 9//1 30//1 29//1
f 9//1 8//1 31//1 30//1
f 8//1 7//1 32//1 31//1
f 7//1 6//1 33//1 32//1
f 6//1 5//1 34//1 33//1
f 11//1 29//1 35//1 12//1
f 29//1 30//1 36//1 35//1
f 91//2 65//2 66//2 92//2
f 88//2 91//2 92//2 89//2
f 86//2 88//2 89//2 87//2
f 84//2 86//2 87//2 85//2
f 12//1 35//1 41//1 13//1
f 35//1 36//1 42//1 41//1
f 92//2 66//2 67//2 93//2
f 37//2 46//2 65//2 91//2
f 38//2 37//2 91//2 88//2
f 39//2 38//2 88//2 86//2
f 13//1 41//1 47//1 14//1
f 41//1 42//1 48//1 47//1
f 43//2 39//2 86//2 84//2
f 81//2 84//2 85//2 82//2
f 44//2 43//2 84//2 81//2
f 75//2 81//2 82//2 76//2
f 14//1 47//1 53//1 15//1
f 47//1 48//1 54//1 53//1
f 45//2 44//2 81//2 75//2
f 56//2 79//2 80//2 57//2
f 55//2 78//2 79//2 56//2
f 51//2 77//2 78//2 55//2
f 15//1 53//1 59//1 16//1
f 53//1 54//1 60//1 59//1
f 50//2 76//2 77//2 51//2
f 49//2 75//2 76//2 50//2
f 52//2 45//2 75//2 49//2
f 90//2 96//2 71//2 72//2
f 16//1 59//1 17//1 2//1
f 59//1 60//1 18//1 17//1
f 60//1 61//1 19//1 18//1
f 61//1 62//1 20//1 19//1
f 62//1 63//1 21//1 20//1
f 63//1 64//1 22//1 21//1
f 93//2 67//2 68//2 94//2
f 94//2 68//2 69//2 95//2
f 95//2 69//2 70//2 96//2
f 21//3 22//3 70//3 69//3
f 8//4 9//4 50//4 51//4
f 40//3 27//3 73//3 83//3
f 48//5 42//5 85//5 87//5
f 4//5 23//5 71//5 25//5
f 9//4 10//4 49//4 50//4
f 23//5 24//5 72//5 71//5
f 36//5 30//5 76//5 82//5
f 1//6 11//6 45//6 52//6
f 11//6 12//6 44//6 45//6
f 58//6 64//6 96//6 90//6
f 12//6 13//6 43//6 44//6
f 61//4 60//4 92//4 93//4
f 13//6 14//6 39//6 43//6
f 62//4 61//4 93//4 94//4
f 10//4 1//4 52//4 49//4
f 27//5 28//5 74//5 73//5
f 34//6 40//6 83//6 80//6
f 14//6 15//6 38//6 39//6
f 63//4 62//4 94//4 95//4
f 16//6 2//6 46//6 37//6
f 54//5 48//5 87//5 89//5
f 15//6 16//6 37//6 38//6
f 64//4 63//4 95//4 96//4
f 22//3 4//3 25//3 70//3
f 24//4 58//4 90//4 72//4
f 42//5 36//5 82//5 85//5
f 2//3 17//3 65//3 46//3
f 28//5 3//5 26//5 74//5
f 17//3 18//3 66//3 65//3
f 3//4 5//4 57//4 26//4
f 30//3 31//3 77//3 76//3
f 18//3 19//3 67//3 66//3
f 5//4 6//4 56//4 57//4
f 31//3 32//3 78//3 77//3
f 19//3 20//3 68//3 67//3
f 6//4 7//4 55//4 56//4
f 32//3 33//3 79//3 78//3
f 20//3 21//3 69//3 68//3
f 7//4 8//4 51//4 55//4
f 60//5 54//5 89//5 92//5
f 33//3 34//3 80//3 79//3
