ub 0) OBJ File: 'IverModel.blend'
# www.blender.org
mtllib Iver_body.mtl
o Cylinder_Cylinder.001
v -0.135937 0.497469 -2.387764
v -0.135937 0.490243 3.758541
v -0.062293 0.491951 -2.387771
v -0.062293 0.484724 3.758534
v 0.009706 0.475517 -2.387790
v 0.009706 0.468291 3.758515
v 0.078451 0.448537 -2.387822
v 0.078451 0.441310 3.758483
v 0.142407 0.411612 -2.387866
v 0.142407 0.404385 3.758440
v 0.200146 0.365567 -2.387920
v 0.200146 0.358340 3.758385
v 0.250377 0.311431 -2.387983
v 0.250377 0.304204 3.758322
v 0.291978 0.250413 -2.388055
v 0.291978 0.243186 3.758250
v 0.324020 0.183876 -2.388133
v 0.324020 0.176649 3.758172
v 0.345788 0.113307 -2.388216
v 0.345788 0.106080 3.758089
v 0.356795 0.040281 -2.388302
v 0.356795 0.033054 3.758003
v 0.356795 -0.033569 -2.388389
v 0.356795 -0.040796 3.757916
v 0.345788 -0.106595 -2.388475
v 0.345788 -0.113822 3.757830
v 0.324020 -0.177164 -2.388558
v 0.324020 -0.184391 3.757747
v 0.291978 -0.243701 -2.388636
v 0.291978 -0.250928 3.757669
v 0.250377 -0.304719 -2.388708
v 0.250377 -0.311946 3.757597
v 0.200146 -0.358855 -2.388771
v 0.200146 -0.366082 3.757534
v 0.142407 -0.404900 -2.388825
v 0.142407 -0.412127 3.757480
v 0.078451 -0.441825 -2.388869
v 0.078451 -0.449052 3.757436
v 0.009706 -0.468805 -2.388901
v 0.009706 -0.476032 3.757404
v -0.062293 -0.485239 -2.388920
v -0.062293 -0.492466 3.757385
v -0.135937 -0.490758 -2.388927
v -0.135937 -0.497984 3.757379
v -0.209581 -0.485239 -2.388920
v -0.209581 -0.492466 3.757385
v -0.281579 -0.468806 -2.388901
v -0.281579 -0.476032 3.757404
v -0.350325 -0.441825 -2.388869
v -0.350325 -0.449052 3.757436
v -0.414281 -0.404900 -2.388825
v -0.414281 -0.412127 3.757480
v -0.472019 -0.358855 -2.388771
v -0.472019 -0.366082 3.757534
v -0.522250 -0.304719 -2.388708
v -0.522250 -0.311946 3.757597
v -0.563852 -0.243701 -2.388636
v -0.563852 -0.250928 3.757669
v -0.595894 -0.177165 -2.388558
v -0.595894 -0.184391 3.757747
v -0.617662 -0.106595 -2.388475
v -0.617662 -0.113822 3.757830
v -0.628669 -0.033570 -2.388389
v -0.628669 -0.040797 3.757916
v -0.628669 0.040280 -2.388302
v -0.628669 0.033053 3.758003
v -0.617663 0.113306 -2.388216
v -0.617663 0.106079 3.758089
v -0.595895 0.183875 -2.388133
v -0.595895 0.176648 3.758172
v -0.563853 0.250412 -2.388055
v -0.563853 0.243185 3.758250
v -0.522251 0.311430 -2.387983
v -0.522251 0.304203 3.758322
v -0.472021 0.365566 -2.387920
v -0.472021 0.358339 3.758385
v -0.414282 0.411611 -2.387866
v -0.414282 0.404384 3.758440
v -0.350326 0.448536 -2.387822
v -0.350326 0.441309 3.758483
v -0.281581 0.475517 -2.387790
v -0.281581 0.468290 3.758515
v -0.209582 0.491950 -2.387771
v -0.209582 0.484724 3.758534
vn 0.074700 0.997200 0.001200
vn 0.222500 0.974900 0.001100
vn 0.365300 0.930900 0.001100
vn 0.500000 0.866000 0.001000
vn 0.623500 0.781800 0.000900
vn 0.733100 0.680200 0.000800
vn 0.826200 0.563300 0.000700
vn 0.901000 0.433900 0.000500
vn 0.955600 0.294800 0.000300
vn 0.988800 0.149000 0.000200
vn 1.000000 -0.000000 -0.000000
vn 0.988800 -0.149000 -0.000200
vn 0.955600 -0.294800 -0.000300
vn 0.901000 -0.433900 -0.000500
vn 0.826200 -0.563300 -0.000700
vn 0.733100 -0.680200 -0.000800
vn 0.623500 -0.781800 -0.000900
vn 0.500000 -0.866000 -0.001000
vn 0.365300 -0.930900 -0.001100
vn 0.222500 -0.974900 -0.001100
vn 0.074700 -0.997200 -0.001200
vn -0.074700 -0.997200 -0.001200
vn -0.222500 -0.974900 -0.001100
vn -0.365300 -0.930900 -0.001100
vn -0.500000 -0.866000 -0.001000
vn -0.623500 -0.781800 -0.000900
vn -0.733100 -0.680200 -0.000800
vn -0.826200 -0.563300 -0.000700
vn -0.901000 -0.433900 -0.000500
vn -0.955600 -0.294800 -0.000300
vn -0.988800 -0.149000 -0.000200
vn -1.000000 -0.000000 -0.000000
vn -0.988800 0.149000 0.000200
vn -0.955600 0.294800 0.000300
vn -0.901000 0.433900 0.000500
vn -0.826200 0.563300 0.000700
vn -0.733100 0.680200 0.000800
vn -0.623500 0.781800 0.000900
vn -0.500000 0.866000 0.001000
vn -0.365300 0.930900 0.001100
vn -0.074700 0.997200 0.001200
vn -0.222500 0.974900 0.001100
usemtl Body
s off
f 1//1 2//1 4//1 3//1
f 3//2 4//2 6//2 5//2
f 5//3 6//3 8//3 7//3
f 7//4 8//4 10//4 9//4
f 9//5 10//5 12//5 11//5
f 11//6 12//6 14//6 13//6
f 13//7 14//7 16//7 15//7
f 15//8 16//8 18//8 17//8
f 17//9 18//9 20//9 19//9
f 19//10 20//10 22//10 21//10
f 21//11 22//11 24//11 23//11
f 23//12 24//12 26//12 25//12
f 25//13 26//13 28//13 27//13
f 27//14 28//14 30//14 29//14
f 29//15 30//15 32//15 31//15
f 31//16 32//16 34//16 33//16
f 33//17 34//17 36//17 35//17
f 35//18 36//18 38//18 37//18
f 37//19 38//19 40//19 39//19
f 39//20 40//20 42//20 41//20
f 41//21 42//21 44//21 43//21
f 43//22 44//22 46//22 45//22
f 45//23 46//23 48//23 47//23
f 47//24 48//24 50//24 49//24
f 49//25 50//25 52//25 51//25
f 51//26 52//26 54//26 53//26
f 53//27 54//27 56//27 55//27
f 55//28 56//28 58//28 57//28
f 57//29 58//29 60//29 59//29
f 59//30 60//30 62//30 61//30
f 61//31 62//31 64//31 63//31
f 63//32 64//32 66//32 65//32
f 65//33 66//33 68//33 67//33
f 67//34 68//34 70//34 69//34
f 69//35 70//35 72//35 71//35
f 71//36 72//36 74//36 73//36
f 73//37 74//37 76//37 75//37
f 75//38 76//38 78//38 77//38
f 77//39 78//39 80//39 79//39
f 79//40 80//40 82//40 81//40
f 83//41 84//41 2//41 1//41
f 81//42 82//42 84//42 83//42
